name ./resultDataOpenSim/trcMotMarkerGrf/sub09/grf-05-06.mot
datacolumns 19
datarows 17
range 1.01600000 1.08000000
endheader

                time	     ground_force_vx	     ground_force_vy	     ground_force_vz	     ground_force_px	     ground_force_py	     ground_force_pz	   l_ground_force_vx	   l_ground_force_vy	   l_ground_force_vz	   l_ground_force_px	   l_ground_force_py	   l_ground_force_pz	     ground_torque_x	     ground_torque_y	     ground_torque_z	   l_ground_torque_x	   l_ground_torque_y	   l_ground_torque_z	
          1.01600000	          0.00000000	          0.00000000	          0.00000000	          0.00000000	          0.00000000	          0.00000000	         -0.68475712	        400.36420161	         15.02262923	          0.14280519	         -0.10000000	          0.01040238	          0.00000000	          0.00000000	          0.00000000	          0.00000000	         -1.56287662	          0.00000000	
          1.02000000	          0.00000000	          0.00000000	          0.00000000	          0.00000000	          0.00000000	          0.00000000	          1.34469562	        407.22465022	         15.17491591	          0.14283403	         -0.10000000	          0.01051728	          0.00000000	          0.00000000	          0.00000000	          0.00000000	         -1.74914608	          0.00000000	
          1.02400000	          0.00000000	          0.00000000	          0.00000000	          0.00000000	          0.00000000	          0.00000000	          3.72759112	        415.13878113	         15.12564935	          0.14289595	         -0.10000000	          0.01068621	          0.00000000	          0.00000000	          0.00000000	          0.00000000	         -1.96686419	          0.00000000	
          1.02800000	          0.00000000	          0.00000000	          0.00000000	          0.00000000	          0.00000000	          0.00000000	          6.50935654	        423.95105785	         14.88205559	          0.14301122	         -0.10000000	          0.01089985	          0.00000000	          0.00000000	          0.00000000	          0.00000000	         -2.21658563	          0.00000000	
          1.03200000	          0.00000000	          0.00000000	          0.00000000	          0.00000000	          0.00000000	          0.00000000	          9.68628504	        433.49996626	         14.49172359	          0.14318169	         -0.10000000	          0.01113585	          0.00000000	          0.00000000	          0.00000000	          0.00000000	         -2.49561399	          0.00000000	
          1.03600000	          0.00000000	          0.00000000	          0.00000000	          0.00000000	          0.00000000	          0.00000000	         13.19931086	        443.60930132	         14.01579768	          0.14337951	         -0.10000000	          0.01134670	          0.00000000	          0.00000000	          0.00000000	          0.00000000	         -2.79785133	          0.00000000	
          1.04000000	          0.00000000	          0.00000000	          0.00000000	          0.00000000	          0.00000000	          0.00000000	         16.97202036	        454.15252799	         13.51518324	          0.14355093	         -0.10000000	          0.01147248	          0.00000000	          0.00000000	          0.00000000	          0.00000000	         -3.11430723	          0.00000000	
          1.04400000	          0.00000000	          0.00000000	          0.00000000	          0.00000000	          0.00000000	          0.00000000	         20.95261481	        465.15299331	         13.05056221	          0.14366137	         -0.10000000	          0.01148593	          0.00000000	          0.00000000	          0.00000000	          0.00000000	         -3.43403550	          0.00000000	
          1.04800000	          0.00000000	          0.00000000	          0.00000000	          0.00000000	          0.00000000	          0.00000000	         25.12275670	        476.78771227	         12.68748342	          0.14372049	         -0.10000000	          0.01141336	          0.00000000	          0.00000000	          0.00000000	          0.00000000	         -3.74534055	          0.00000000	
          1.05200000	          0.00000000	          0.00000000	          0.00000000	          0.00000000	          0.00000000	          0.00000000	         29.48955521	        489.27506015	         12.49316716	          0.14376251	         -0.10000000	          0.01131069	          0.00000000	          0.00000000	          0.00000000	          0.00000000	         -4.03715501	          0.00000000	
          1.05600000	          0.00000000	          0.00000000	          0.00000000	          0.00000000	          0.00000000	          0.00000000	         34.07480975	        502.77781047	         12.51986952	          0.14381490	         -0.10000000	          0.01122503	          0.00000000	          0.00000000	          0.00000000	          0.00000000	         -4.30041891	          0.00000000	
          1.06000000	          0.00000000	          0.00000000	          0.00000000	          0.00000000	          0.00000000	          0.00000000	         38.89910122	        517.39404912	         12.78872915	          0.14387175	         -0.10000000	          0.01117384	          0.00000000	          0.00000000	          0.00000000	          0.00000000	         -4.52915658	          0.00000000	
          1.06400000	          0.00000000	          0.00000000	          0.00000000	          0.00000000	          0.00000000	          0.00000000	         43.96716888	        533.14890356	         13.29307174	          0.14390397	         -0.10000000	          0.01114353	          0.00000000	          0.00000000	          0.00000000	          0.00000000	         -4.72095261	          0.00000000	
          1.06800000	          0.00000000	          0.00000000	          0.00000000	          0.00000000	          0.00000000	          0.00000000	         49.25527547	        549.94705026	         14.01872872	          0.14391047	         -0.10000000	          0.01110773	          0.00000000	          0.00000000	          0.00000000	          0.00000000	         -4.87674788	          0.00000000	
          1.07200000	          0.00000000	          0.00000000	          0.00000000	          0.00000000	          0.00000000	          0.00000000	         54.70428734	        567.56690296	         14.95723157	          0.14392794	         -0.10000000	          0.01105548	          0.00000000	          0.00000000	          0.00000000	          0.00000000	         -5.00012450	          0.00000000	
          1.07600000	          0.00000000	          0.00000000	          0.00000000	          0.00000000	          0.00000000	          0.00000000	         60.23551479	        585.73050911	         16.09540324	          0.14397214	         -0.10000000	          0.01099043	          0.00000000	          0.00000000	          0.00000000	          0.00000000	         -5.09631648	          0.00000000	
          1.08000000	          0.00000000	          0.00000000	          0.00000000	          0.00000000	          0.00000000	          0.00000000	         65.78390988	        604.19134178	         17.39640533	          0.14400263	         -0.10000000	          0.01091917	          0.00000000	          0.00000000	          0.00000000	          0.00000000	         -5.17111221	          0.00000000	
